<svg xmlns="http://www.w3.org/2000/svg" viewBox="0 0 23.62 30.25"><defs><style>.cls-1{fill:#fff6ed;opacity:0.75;}</style></defs><title>Mesa de trabajo 1</title><path class="cls-1" d="M8.35 13.49a.38.38 0 0 0-.31.11l-3.37 3.4a.31.31 0 0 0-.13.23.38.38 0 0 0 .64.31l3.38-3.38a.31.31 0 0 0 .13-.23.37.37 0 0 0-.1-.29.31.31 0 0 0-.24-.15zm11.93 13.43h-2.62l2.44 3.28v.05h1.42l-1.21-3.25zm-15.28-11.33l1.37-1.37a.37.37 0 0 0 0-.52.31.31 0 0 0-.23-.13.38.38 0 0 0-.31.11l-1.34 1.32a.31.31 0 0 0-.13.23.38.38 0 0 0 .64.31zm-4.33 14.66h1.39l2.47-3.33h-2.62zm18.14-11.93a1.48 1.48 0 1 0 1.48 1.48 1.48 1.48 0 0 0-1.48-1.48zm1.19-8.84h-17.76a2.22 2.22 0 0 0-2.24 2.24v12.51a2.22 2.22 0 0 0 2.24 2.24h17.82a2.22 2.22 0 0 0 2.24-2.24v-12.51a2.28 2.28 0 0 0-2.3-2.24zm1 14.75a1 1 0 0 1-1 1h-17.76a1 1 0 0 1-1-1v-12.51a1 1 0 0 1 1-1h17.76a1 1 0 0 1 1 1zm-2.19-10.23a1.48 1.48 0 1 0 1.48 1.48 1.48 1.48 0 0 0-1.48-1.48zm4.63-11.48a.63.63 0 0 0-.91 0l-5 5-7.4-7.33a.63.63 0 0 0-.9 0 .64.64 0 0 0-.23.46.64.64 0 0 0 .19.45l7.81 7.73a.62.62 0 0 0 .44.17h.14a.5.5 0 0 0 .42-.17l5.39-5.4a.62.62 0 0 0 .23-.43.59.59 0 0 0-.18-.48zm-10.14 8.83h-8.11a3.18 3.18 0 0 0-3.19 3.18v4.71a3.18 3.18 0 0 0 3.18 3.17h8.12a3.18 3.18 0 0 0 3.18-3.17v-4.71a3.06 3.06 0 0 0-.88-2.22 3.18 3.18 0 0 0-2.3-.96zm2.16 7.89a2.17 2.17 0 0 1-2.16 2.16h-8.11a2.17 2.17 0 0 1-2.19-2.16v-4.71a2.17 2.17 0 0 1 2.16-2.16h8.14a2.17 2.17 0 0 1 2.16 2.16z"/></svg>